<?xml version="1.0" encoding="UTF-8"?>
<svg version="1.1" xmlns="http://www.w3.org/2000/svg" width="320" height="234">
<path d="M0 0 C1.27423828 -0.00193359 1.27423828 -0.00193359 2.57421875 -0.00390625 C3.91419922 0.00189453 3.91419922 0.00189453 5.28125 0.0078125 C6.17457031 0.00394531 7.06789062 0.00007813 7.98828125 -0.00390625 C8.83777344 -0.00261719 9.68726563 -0.00132813 10.5625 0 C11.34689453 0.00112793 12.13128906 0.00225586 12.93945312 0.00341797 C14.78125 0.1328125 14.78125 0.1328125 15.78125 1.1328125 C15.78125 3.4428125 15.78125 5.7528125 15.78125 8.1328125 C11.16125 8.1328125 6.54125 8.1328125 1.78125 8.1328125 C1.78125 17.7028125 1.78125 27.2728125 1.78125 37.1328125 C10.03125 37.1328125 18.28125 37.1328125 26.78125 37.1328125 C26.78125 39.7728125 26.78125 42.4128125 26.78125 45.1328125 C18.53125 45.1328125 10.28125 45.1328125 1.78125 45.1328125 C1.78125 54.7028125 1.78125 64.2728125 1.78125 74.1328125 C9.45985452 74.08610566 17.13682248 74.03559963 24.81481934 73.94902039 C28.39088815 73.90976925 31.96671147 73.87732873 35.54296875 73.86181641 C38.99273889 73.8465827 42.44184053 73.81202113 45.89131165 73.76450348 C47.83641362 73.74262159 49.78170457 73.74034454 51.72692871 73.73846436 C58.8478359 73.62151471 63.7724918 73.07797498 69.78125 69.1328125 C72.82554337 64.85177495 73.41810528 61.31863406 72.78125 56.1328125 C71.30804429 52.09606238 69.80206695 49.7768279 66.125 47.45703125 C62.30757759 45.94522494 58.9449852 45.74069155 54.90625 45.6953125 C46.02096224 45.33279195 41.0119804 43.76147237 34.90625 37.2578125 C30.8929314 32.30287246 29.26180367 27.81816461 29.47265625 21.34375 C30.31109672 15.33669546 32.50364195 9.8800533 36.96875 5.6953125 C45.89734008 -0.71323144 55.61990985 -0.27101887 66.19140625 -0.16015625 C67.77037653 -0.15455139 69.34935208 -0.15028551 70.92832947 -0.14729309 C75.05641433 -0.13591422 79.18417557 -0.10650826 83.31213379 -0.07318115 C87.53551864 -0.042329 91.75895648 -0.02875559 95.98242188 -0.01367188 C104.24884536 0.01836921 112.51500727 0.06947973 120.78125 0.1328125 C120.78125 2.7728125 120.78125 5.4128125 120.78125 8.1328125 C113.19125 8.1328125 105.60125 8.1328125 97.78125 8.1328125 C97.78125 32.2228125 97.78125 56.3128125 97.78125 81.1328125 C95.47125 81.1328125 93.16125 81.1328125 90.78125 81.1328125 C90.78125 57.0428125 90.78125 32.9528125 90.78125 8.1328125 C84.18125 8.2153125 77.58125 8.2978125 70.78125 8.3828125 C68.71359375 8.39860352 66.6459375 8.41439453 64.515625 8.43066406 C62.85413896 8.4600625 61.1926774 8.49089338 59.53125 8.5234375 C58.68691406 8.52456543 57.84257812 8.52569336 56.97265625 8.52685547 C51.12595783 8.66622444 46.69446878 9.88757736 41.78125 13.1328125 C38.64416824 16.64663387 37.76489714 20.1679937 37.84375 24.8203125 C39.15834667 29.46522072 40.21651895 32.17025878 44.41015625 34.75 C48.21991521 36.31275165 51.4902653 36.48460512 55.53125 36.5078125 C62.45072128 36.774251 68.21660273 37.63463463 73.78125 42.1328125 C79.20907445 48.48570764 81.17107199 53.98509546 81.05078125 62.28515625 C80.35701804 69.61491542 76.41899785 73.94882987 71.07421875 78.6875 C66.07965409 81.83569238 60.7350597 82.38288419 54.94384766 82.37573242 C53.62623444 82.37880905 52.30862122 82.38188568 50.95108032 82.38505554 C49.53248924 82.37816088 48.11389991 82.37089415 46.6953125 82.36328125 C45.22797689 82.36208781 43.76064051 82.36163663 42.29330444 82.3618927 C39.23210812 82.36033497 36.17102992 82.35209526 33.10986328 82.33862305 C29.17877379 82.3215438 25.24781271 82.31781165 21.31669044 82.31856823 C18.29363776 82.31829707 15.27061335 82.31282602 12.24757004 82.30556679 C10.79703358 82.30237856 9.34649391 82.30041235 7.89595413 82.29967308 C5.87805278 82.29751628 3.86016331 82.28798898 1.84228516 82.27807617 C0.69313629 82.27426437 -0.45601257 82.27045258 -1.63998413 82.26652527 C-4.21875 82.1328125 -4.21875 82.1328125 -5.21875 81.1328125 C-5.31908866 78.64327553 -5.35492943 76.18146297 -5.34814453 73.69140625 C-5.34989685 72.91258087 -5.35164917 72.13375549 -5.35345459 71.33132935 C-5.35787349 68.74430139 -5.35493499 66.15734121 -5.3515625 63.5703125 C-5.35223553 61.78051744 -5.35320554 59.99072248 -5.35446167 58.20092773 C-5.35593869 54.44481539 -5.35378394 50.68872678 -5.34912109 46.93261719 C-5.3434238 42.10680757 -5.34670278 37.28105355 -5.35269356 32.45524597 C-5.35629905 28.75793027 -5.35516064 25.06062786 -5.35256577 21.36331177 C-5.35189646 19.58342482 -5.35272503 17.80353668 -5.35504532 16.02365112 C-5.35757165 13.54047428 -5.35373154 11.05738876 -5.34814453 8.57421875 C-5.35016876 7.83132599 -5.35219299 7.08843323 -5.35427856 6.32302856 C-5.32782004 0.0076612 -5.32782004 0.0076612 0 0 Z " fill="#EAEAEA" transform="translate(139.21875,61.8671875)"/>
<path d="M0 0 C3.16634636 -0.11760715 6.33212074 -0.18771024 9.5 -0.25 C10.386875 -0.28351563 11.27375 -0.31703125 12.1875 -0.3515625 C19.89232871 -0.4648688 24.99256113 1.39355298 30.8125 6.4375 C35.77473645 12.25040556 37.35118655 17.10635052 37.203125 24.6328125 C36.68448631 30.67694795 34.74889897 34.6550102 30.3125 38.8125 C21.20751948 45.98512854 12.11127117 45.63843768 1 45 C0 44 0 44 -0.0625 40.4375 C-0.041875 39.303125 -0.02125 38.16875 0 37 C1.22976562 36.96261719 2.45953125 36.92523438 3.7265625 36.88671875 C5.35940401 36.82102972 6.99221518 36.75458341 8.625 36.6875 C9.43324219 36.66494141 10.24148437 36.64238281 11.07421875 36.61914062 C16.12626359 36.39323618 19.52846733 35.56597182 24 33 C24.66 33 25.32 33 26 33 C28.36975928 28.10249749 30.0137478 22.31540161 28.37890625 16.96875 C26.09032401 12.48654744 23.5731641 10.77873914 19 9 C15.71129782 8.52254491 12.44442685 8.39998489 9.125 8.3125 C8.24585937 8.27833984 7.36671875 8.24417969 6.4609375 8.20898438 C4.30772295 8.1270686 2.15388449 8.06184421 0 8 C0 5.36 0 2.72 0 0 Z " fill="#E4E4E4" transform="translate(60,99)"/>
<path d="M0 0 C1 1 1 1 1.0625 4.5625 C1.041875 5.696875 1.02125 6.83125 1 8 C-0.08667969 8.25523438 -0.08667969 8.25523438 -1.1953125 8.515625 C-10.53121913 10.66847723 -10.53121913 10.66847723 -17.32524109 17.02206421 C-20.87697752 23.64195337 -21.73638094 29.02594912 -21.70703125 36.4765625 C-21.72215256 37.52782318 -21.73727386 38.57908386 -21.75285339 39.66220093 C-21.79546005 42.98335678 -21.80454253 46.30359901 -21.8125 49.625 C-21.83566521 51.89195092 -21.86103472 54.15888044 -21.88867188 56.42578125 C-21.95125678 61.95052976 -21.98640517 67.47492515 -22 73 C-24.31 73 -26.62 73 -29 73 C-29.10199025 66.06246597 -29.17171192 59.12512755 -29.21972656 52.18701172 C-29.23975732 49.83016739 -29.26698992 47.47337222 -29.30175781 45.11669922 C-29.35065172 41.71569638 -29.37305502 38.3153545 -29.390625 34.9140625 C-29.41127014 33.87198639 -29.43191528 32.82991028 -29.45318604 31.7562561 C-29.45564847 23.60353179 -27.57752777 17.20041562 -23.3125 10.25 C-16.94212623 4.0517985 -9.21275082 -0.81288978 0 0 Z " fill="#E3E3E3" transform="translate(130,99)"/>
<path d="M0 0 C2.31 0 4.62 0 7 0 C7 8.58 7 17.16 7 26 C5.02 26 3.04 26 1 26 C0 25 0 25 -0.11352539 22.59155273 C-0.10828857 21.54942627 -0.10305176 20.5072998 -0.09765625 19.43359375 C-0.09443359 18.30888672 -0.09121094 17.18417969 -0.08789062 16.02539062 C-0.07951172 14.84138672 -0.07113281 13.65738281 -0.0625 12.4375 C-0.05798828 11.24962891 -0.05347656 10.06175781 -0.04882812 8.83789062 C-0.03699675 5.89187774 -0.02051287 2.94596319 0 0 Z " fill="#D9D9D9" transform="translate(60,146)"/>
<path d="M0 0 C0.66 0.33 1.32 0.66 2 1 C0.38405168 3.04119788 -1.2856382 5.04072937 -3 7 C-3.66 7 -4.32 7 -5 7 C-3.70700306 4.11562221 -2.34058637 2.12780579 0 0 Z " fill="#A0A0A0" transform="translate(178,66)"/>
</svg>
