<?xml version="1.0" encoding="UTF-8"?>
<svg version="1.1" xmlns="http://www.w3.org/2000/svg" width="320" height="234">
<path d="M0 0 C1.27423828 -0.00193359 1.27423828 -0.00193359 2.57421875 -0.00390625 C3.91419922 0.00189453 3.91419922 0.00189453 5.28125 0.0078125 C6.17457031 0.00394531 7.06789062 0.00007813 7.98828125 -0.00390625 C8.83777344 -0.00261719 9.68726563 -0.00132813 10.5625 0 C11.34689453 0.00112793 12.13128906 0.00225586 12.93945312 0.00341797 C14.78125 0.1328125 14.78125 0.1328125 15.78125 1.1328125 C15.78125 3.4428125 15.78125 5.7528125 15.78125 8.1328125 C11.16125 8.1328125 6.54125 8.1328125 1.78125 8.1328125 C1.78125 17.7028125 1.78125 27.2728125 1.78125 37.1328125 C10.03125 37.1328125 18.28125 37.1328125 26.78125 37.1328125 C26.78125 39.7728125 26.78125 42.4128125 26.78125 45.1328125 C18.53125 45.1328125 10.28125 45.1328125 1.78125 45.1328125 C1.78125 54.7028125 1.78125 64.2728125 1.78125 74.1328125 C9.45985452 74.08610566 17.13682248 74.03559963 24.81481934 73.94902039 C28.39088815 73.90976925 31.96671147 73.87732873 35.54296875 73.86181641 C38.99273889 73.8465827 42.44184053 73.81202113 45.89131165 73.76450348 C47.83641362 73.74262159 49.78170457 73.74034454 51.72692871 73.73846436 C58.8478359 73.62151471 63.7724918 73.07797498 69.78125 69.1328125 C72.82554337 64.85177495 73.41810528 61.31863406 72.78125 56.1328125 C71.30804429 52.09606238 69.80206695 49.7768279 66.125 47.45703125 C62.30806573 45.94541826 58.94479847 45.73926689 54.90625 45.6953125 C46.86336213 45.39121971 42.024398 43.94354076 35.96875 38.6953125 C31.26887087 33.18973981 29.37208817 28.68888661 29.5078125 21.4140625 C30.23081378 15.3821661 32.50568268 9.87814071 36.96875 5.6953125 C45.89734008 -0.71323144 55.61990985 -0.27101887 66.19140625 -0.16015625 C67.77037653 -0.15455139 69.34935208 -0.15028551 70.92832947 -0.14729309 C75.05641433 -0.13591422 79.18417557 -0.10650826 83.31213379 -0.07318115 C87.53551864 -0.042329 91.75895648 -0.02875559 95.98242188 -0.01367188 C104.24884536 0.01836921 112.51500727 0.06947973 120.78125 0.1328125 C120.78125 2.7728125 120.78125 5.4128125 120.78125 8.1328125 C113.19125 8.1328125 105.60125 8.1328125 97.78125 8.1328125 C97.78125 32.2228125 97.78125 56.3128125 97.78125 81.1328125 C95.47125 81.1328125 93.16125 81.1328125 90.78125 81.1328125 C90.78125 57.0428125 90.78125 32.9528125 90.78125 8.1328125 C84.18125 8.2153125 77.58125 8.2978125 70.78125 8.3828125 C68.71359375 8.39860352 66.6459375 8.41439453 64.515625 8.43066406 C62.85413896 8.4600625 61.1926774 8.49089338 59.53125 8.5234375 C58.68691406 8.52456543 57.84257812 8.52569336 56.97265625 8.52685547 C51.12595783 8.66622444 46.69446878 9.88757736 41.78125 13.1328125 C38.64416824 16.64663387 37.76489714 20.1679937 37.84375 24.8203125 C39.15834667 29.46522072 40.21651895 32.17025878 44.41015625 34.75 C48.21991521 36.31275165 51.4902653 36.48460512 55.53125 36.5078125 C62.45072128 36.774251 68.21660273 37.63463463 73.78125 42.1328125 C79.20907445 48.48570764 81.17107199 53.98509546 81.05078125 62.28515625 C80.35701804 69.61491542 76.41899785 73.94882987 71.07421875 78.6875 C66.07965409 81.83569238 60.7350597 82.38288419 54.94384766 82.37573242 C53.62623444 82.37880905 52.30862122 82.38188568 50.95108032 82.38505554 C49.53248924 82.37816088 48.11389991 82.37089415 46.6953125 82.36328125 C45.22797689 82.36208781 43.76064051 82.36163663 42.29330444 82.3618927 C39.23210812 82.36033497 36.17102992 82.35209526 33.10986328 82.33862305 C29.17877379 82.3215438 25.24781271 82.31781165 21.31669044 82.31856823 C18.29363776 82.31829707 15.27061335 82.31282602 12.24757004 82.30556679 C10.79703358 82.30237856 9.34649391 82.30041235 7.89595413 82.29967308 C5.87805278 82.29751628 3.86016331 82.28798898 1.84228516 82.27807617 C0.69313629 82.27426437 -0.45601257 82.27045258 -1.63998413 82.26652527 C-4.21875 82.1328125 -4.21875 82.1328125 -5.21875 81.1328125 C-5.31908866 78.64327553 -5.35492943 76.18146297 -5.34814453 73.69140625 C-5.34989685 72.91258087 -5.35164917 72.13375549 -5.35345459 71.33132935 C-5.35787349 68.74430139 -5.35493499 66.15734121 -5.3515625 63.5703125 C-5.35223553 61.78051744 -5.35320554 59.99072248 -5.35446167 58.20092773 C-5.35593869 54.44481539 -5.35378394 50.68872678 -5.34912109 46.93261719 C-5.3434238 42.10680757 -5.34670278 37.28105355 -5.35269356 32.45524597 C-5.35629905 28.75793027 -5.35516064 25.06062786 -5.35256577 21.36331177 C-5.35189646 19.58342482 -5.35272503 17.80353668 -5.35504532 16.02365112 C-5.35757165 13.54047428 -5.35373154 11.05738876 -5.34814453 8.57421875 C-5.35016876 7.83132599 -5.35219299 7.08843323 -5.35427856 6.32302856 C-5.32782004 0.0076612 -5.32782004 0.0076612 0 0 Z " fill="#152234" transform="translate(139.21875,61.8671875)"/>
<path d="M0 0 C1.27423828 -0.00193359 1.27423828 -0.00193359 2.57421875 -0.00390625 C3.91419922 0.00189453 3.91419922 0.00189453 5.28125 0.0078125 C6.17457031 0.00394531 7.06789062 0.00007813 7.98828125 -0.00390625 C8.83777344 -0.00261719 9.68726563 -0.00132813 10.5625 0 C11.34689453 0.00112793 12.13128906 0.00225586 12.93945312 0.00341797 C14.78125 0.1328125 14.78125 0.1328125 15.78125 1.1328125 C15.78125 3.4428125 15.78125 5.7528125 15.78125 8.1328125 C11.16125 8.1328125 6.54125 8.1328125 1.78125 8.1328125 C1.78125 17.7028125 1.78125 27.2728125 1.78125 37.1328125 C10.03125 37.1328125 18.28125 37.1328125 26.78125 37.1328125 C26.78125 39.7728125 26.78125 42.4128125 26.78125 45.1328125 C18.53125 45.1328125 10.28125 45.1328125 1.78125 45.1328125 C1.78125 54.7028125 1.78125 64.2728125 1.78125 74.1328125 C9.45985452 74.08610566 17.13682248 74.03559963 24.81481934 73.94902039 C28.39088815 73.90976925 31.96671147 73.87732873 35.54296875 73.86181641 C38.99273889 73.8465827 42.44184053 73.81202113 45.89131165 73.76450348 C47.83641362 73.74262159 49.78170457 73.74034454 51.72692871 73.73846436 C58.8478359 73.62151471 63.7724918 73.07797498 69.78125 69.1328125 C72.82554337 64.85177495 73.41810528 61.31863406 72.78125 56.1328125 C71.30804429 52.09606238 69.80206695 49.7768279 66.125 47.45703125 C62.30806573 45.94541826 58.94479847 45.73926689 54.90625 45.6953125 C46.86336213 45.39121971 42.024398 43.94354076 35.96875 38.6953125 C31.26887087 33.18973981 29.37208817 28.68888661 29.5078125 21.4140625 C30.23081378 15.3821661 32.50568268 9.87814071 36.96875 5.6953125 C45.89734008 -0.71323144 55.61990985 -0.27101887 66.19140625 -0.16015625 C67.77037653 -0.15455139 69.34935208 -0.15028551 70.92832947 -0.14729309 C75.05641433 -0.13591422 79.18417557 -0.10650826 83.31213379 -0.07318115 C87.53551864 -0.042329 91.75895648 -0.02875559 95.98242188 -0.01367188 C104.24884536 0.01836921 112.51500727 0.06947973 120.78125 0.1328125 C120.78125 2.7728125 120.78125 5.4128125 120.78125 8.1328125 C113.19125 8.1328125 105.60125 8.1328125 97.78125 8.1328125 C97.78125 32.2228125 97.78125 56.3128125 97.78125 81.1328125 C95.47125 81.1328125 93.16125 81.1328125 90.78125 81.1328125 C90.78125 57.0428125 90.78125 32.9528125 90.78125 8.1328125 C76.26125 8.4628125 61.74125 8.7928125 46.78125 9.1328125 C46.78125 8.4728125 46.78125 7.8128125 46.78125 7.1328125 C49.05935639 5.99375931 50.3182137 6.0061426 52.84790039 6.00341797 C53.68539322 6.00026581 54.52288605 5.99711365 55.38575745 5.99386597 C56.29099655 5.9958902 57.19623566 5.99791443 58.12890625 6 C59.05593857 5.99904327 59.98297089 5.99808655 60.93809509 5.99710083 C62.89924182 5.99641974 64.8603908 5.9982691 66.8215332 6.00244141 C69.83484927 6.00779668 72.84801668 6.00249092 75.86132812 5.99609375 C77.76302116 5.99675443 79.66471411 5.99803537 81.56640625 6 C82.47366959 5.99797577 83.38093292 5.99595154 84.31568909 5.99386597 C90.66629622 6.01785872 90.66629622 6.01785872 91.78125 7.1328125 C91.87561529 9.37211136 91.89867327 11.61443 91.89477539 13.85571289 C91.89492142 14.558116 91.89506744 15.2605191 91.8952179 15.98420715 C91.89451872 18.31632528 91.88672617 20.6483645 91.87890625 22.98046875 C91.87704208 24.59329688 91.87561818 26.20612557 91.87461853 27.81895447 C91.87079323 32.07196607 91.86096285 36.32494374 91.84991455 40.57794189 C91.83970069 44.9145868 91.83512096 49.25123717 91.83007812 53.58789062 C91.81934059 62.10288019 91.80226403 70.61784213 91.78125 79.1328125 C93.43125 79.1328125 95.08125 79.1328125 96.78125 79.1328125 C96.78125 55.0428125 96.78125 30.9528125 96.78125 6.1328125 C104.37125 6.1328125 111.96125 6.1328125 119.78125 6.1328125 C119.78125 4.8128125 119.78125 3.4928125 119.78125 2.1328125 C110.80961085 2.19422562 101.83828443 2.2714756 92.86695957 2.36852741 C88.70047023 2.41311178 84.53407597 2.45239358 80.36743164 2.47924805 C76.34071707 2.50540091 72.3143708 2.54588629 68.28788567 2.59599876 C66.75748235 2.61258695 65.22701546 2.62415106 63.69653511 2.63042641 C51.92884887 2.6785057 51.92884887 2.6785057 40.78125 6.1328125 C40.06735611 6.45699661 39.35346222 6.78118073 38.61793518 7.1151886 C36.24432469 8.43029845 35.80200938 9.65382544 34.78125 12.1328125 C34.4409375 12.70644531 34.100625 13.28007813 33.75 13.87109375 C31.5366772 19.03848852 31.81036462 26.08895562 33.50390625 31.3984375 C36.48503454 36.95033635 40.89741312 40.22016029 46.78125 42.1328125 C50.13568805 42.40685656 53.44826713 42.54540107 56.81054688 42.61132812 C62.24185145 42.82240252 66.39193974 43.90241124 70.42578125 47.66796875 C74.82944153 53.42660143 75.3883544 56.95794234 74.78125 64.1328125 C73.1121214 68.87665167 70.94791048 71.35503884 66.78125 74.1328125 C62.96206586 75.96139111 59.94086734 76.38144888 55.72167969 76.37573242 C54.52403992 76.37880905 53.32640015 76.38188568 52.09246826 76.38505554 C50.80898499 76.37787003 49.52550171 76.37068451 48.203125 76.36328125 C46.86745244 76.36208833 45.53177903 76.36163652 44.19610596 76.3618927 C41.40542301 76.3603327 38.61486923 76.35207678 35.82421875 76.33862305 C32.24057957 76.32156782 28.65708124 76.31781084 25.07340622 76.31856823 C21.65829346 76.31823183 18.24322733 76.30940235 14.828125 76.30078125 C13.5365448 76.29966843 12.2449646 76.2985556 10.91424561 76.29740906 C9.72921448 76.29102921 8.54418335 76.28464935 7.32324219 76.27807617 C6.27465027 76.27426437 5.22605835 76.27045258 4.14569092 76.26652527 C1.78125 76.1328125 1.78125 76.1328125 0.78125 75.1328125 C0.6810407 72.85333458 0.65043697 70.57074115 0.6484375 68.2890625 C0.64748077 67.60477173 0.64652405 66.92048096 0.64553833 66.2154541 C0.6448567 64.76619373 0.64670977 63.31693032 0.65087891 61.86767578 C0.65622748 59.64218322 0.6509334 57.41689249 0.64453125 55.19140625 C0.64519203 53.78645789 0.6464732 52.38150965 0.6484375 50.9765625 C0.64956543 49.68943359 0.65069336 48.40230469 0.65185547 47.07617188 C0.78125 44.1328125 0.78125 44.1328125 1.78125 43.1328125 C3.56196246 43.04555027 5.3460814 43.02582209 7.12890625 43.03515625 C8.20849609 43.03837891 9.28808594 43.04160156 10.40039062 43.04492188 C12.10485352 43.05749023 12.10485352 43.05749023 13.84375 43.0703125 C15.55401367 43.07708008 15.55401367 43.07708008 17.29882812 43.08398438 C20.12635351 43.09581503 22.9537764 43.1122984 25.78125 43.1328125 C25.78125 41.8128125 25.78125 40.4928125 25.78125 39.1328125 C17.53125 39.1328125 9.28125 39.1328125 0.78125 39.1328125 C0.78125 28.5728125 0.78125 18.0128125 0.78125 7.1328125 C5.40125 7.1328125 10.02125 7.1328125 14.78125 7.1328125 C14.78125 5.4828125 14.78125 3.8328125 14.78125 2.1328125 C8.84125 2.1328125 2.90125 2.1328125 -3.21875 2.1328125 C-3.21875 27.8728125 -3.21875 53.6128125 -3.21875 80.1328125 C7.155625 80.0296875 17.53 79.9265625 28.21875 79.8203125 C31.47806396 79.79541748 34.73737793 79.77052246 38.09545898 79.74487305 C40.69776834 79.7125683 43.30006471 79.6791925 45.90234375 79.64453125 C46.89960228 79.640158 46.89960228 79.640158 47.91700745 79.63569641 C57.79087101 79.58671796 67.40214548 79.51191702 74.78125 72.1328125 C78.52625619 66.78280366 79.62114819 61.65089566 78.78125 55.1328125 C76.88368472 49.24493851 73.84932501 45.5791035 68.78125 42.1328125 C63.03023032 39.80109535 57.5728064 39.76750584 51.4375 39.57421875 C46.37261321 38.96275272 43.03912955 37.46057425 39.53125 33.7578125 C36.17013705 28.71614307 35.39280398 25.31963735 36.23828125 19.3515625 C37.28369743 15.07964602 39.28756414 12.04562053 43.03125 9.7578125 C43.60875 9.5515625 44.18625 9.3453125 44.78125 9.1328125 C44.78125 9.7928125 44.78125 10.4528125 44.78125 11.1328125 C43.9975 11.8959375 43.21375 12.6590625 42.40625 13.4453125 C39.78869422 16.12519104 38.63823009 17.5334961 37.78125 21.1328125 C38.03573428 25.88318573 38.7724981 29.39781014 41.78125 33.1328125 C46.39034339 35.96812404 50.24569627 36.47745756 55.53125 36.5078125 C62.45072128 36.774251 68.21660273 37.63463463 73.78125 42.1328125 C79.20907445 48.48570764 81.17107199 53.98509546 81.05078125 62.28515625 C80.35701804 69.61491542 76.41899785 73.94882987 71.07421875 78.6875 C66.07965409 81.83569238 60.7350597 82.38288419 54.94384766 82.37573242 C53.62623444 82.37880905 52.30862122 82.38188568 50.95108032 82.38505554 C49.53248924 82.37816088 48.11389991 82.37089415 46.6953125 82.36328125 C45.22797689 82.36208781 43.76064051 82.36163663 42.29330444 82.3618927 C39.23210812 82.36033497 36.17102992 82.35209526 33.10986328 82.33862305 C29.17877379 82.3215438 25.24781271 82.31781165 21.31669044 82.31856823 C18.29363776 82.31829707 15.27061335 82.31282602 12.24757004 82.30556679 C10.79703358 82.30237856 9.34649391 82.30041235 7.89595413 82.29967308 C5.87805278 82.29751628 3.86016331 82.28798898 1.84228516 82.27807617 C0.69313629 82.27426437 -0.45601257 82.27045258 -1.63998413 82.26652527 C-4.21875 82.1328125 -4.21875 82.1328125 -5.21875 81.1328125 C-5.31908866 78.64327553 -5.35492943 76.18146297 -5.34814453 73.69140625 C-5.34989685 72.91258087 -5.35164917 72.13375549 -5.35345459 71.33132935 C-5.35787349 68.74430139 -5.35493499 66.15734121 -5.3515625 63.5703125 C-5.35223553 61.78051744 -5.35320554 59.99072248 -5.35446167 58.20092773 C-5.35593869 54.44481539 -5.35378394 50.68872678 -5.34912109 46.93261719 C-5.3434238 42.10680757 -5.34670278 37.28105355 -5.35269356 32.45524597 C-5.35629905 28.75793027 -5.35516064 25.06062786 -5.35256577 21.36331177 C-5.35189646 19.58342482 -5.35272503 17.80353668 -5.35504532 16.02365112 C-5.35757165 13.54047428 -5.35373154 11.05738876 -5.34814453 8.57421875 C-5.35016876 7.83132599 -5.35219299 7.08843323 -5.35427856 6.32302856 C-5.32782004 0.0076612 -5.32782004 0.0076612 0 0 Z " fill="#000003" transform="translate(139.21875,61.8671875)"/>
<path d="M0 0 C3.16634636 -0.11760715 6.33212074 -0.18771024 9.5 -0.25 C10.386875 -0.28351563 11.27375 -0.31703125 12.1875 -0.3515625 C19.89232871 -0.4648688 24.99256113 1.39355298 30.8125 6.4375 C35.77473645 12.25040556 37.35118655 17.10635052 37.203125 24.6328125 C36.68448631 30.67694795 34.74889897 34.6550102 30.3125 38.8125 C21.20751948 45.98512854 12.11127117 45.63843768 1 45 C0 44 0 44 -0.0625 40.4375 C-0.041875 39.303125 -0.02125 38.16875 0 37 C1.22976562 36.96261719 2.45953125 36.92523438 3.7265625 36.88671875 C5.35940401 36.82102972 6.99221518 36.75458341 8.625 36.6875 C9.43324219 36.66494141 10.24148437 36.64238281 11.07421875 36.61914062 C16.12626359 36.39323618 19.52846733 35.56597182 24 33 C24.66 33 25.32 33 26 33 C28.36975928 28.10249749 30.0137478 22.31540161 28.37890625 16.96875 C26.09032401 12.48654744 23.5731641 10.77873914 19 9 C15.71129782 8.52254491 12.44442685 8.39998489 9.125 8.3125 C8.24585937 8.27833984 7.36671875 8.24417969 6.4609375 8.20898438 C4.30772295 8.1270686 2.15388449 8.06184421 0 8 C0 5.36 0 2.72 0 0 Z " fill="#162334" transform="translate(60,99)"/>
<path d="M0 0 C1 1 1 1 1.0625 4.5625 C1.041875 5.696875 1.02125 6.83125 1 8 C-0.08667969 8.25523438 -0.08667969 8.25523438 -1.1953125 8.515625 C-10.53121913 10.66847723 -10.53121913 10.66847723 -17.32524109 17.02206421 C-20.87697752 23.64195337 -21.73638094 29.02594912 -21.70703125 36.4765625 C-21.72215256 37.52782318 -21.73727386 38.57908386 -21.75285339 39.66220093 C-21.79546005 42.98335678 -21.80454253 46.30359901 -21.8125 49.625 C-21.83566521 51.89195092 -21.86103472 54.15888044 -21.88867188 56.42578125 C-21.95125678 61.95052976 -21.98640517 67.47492515 -22 73 C-24.31 73 -26.62 73 -29 73 C-29.10199025 66.06246597 -29.17171192 59.12512755 -29.21972656 52.18701172 C-29.23975732 49.83016739 -29.26698992 47.47337222 -29.30175781 45.11669922 C-29.35065172 41.71569638 -29.37305502 38.3153545 -29.390625 34.9140625 C-29.41127014 33.87198639 -29.43191528 32.82991028 -29.45318604 31.7562561 C-29.45564847 23.60353179 -27.57752777 17.20041562 -23.3125 10.25 C-16.94212623 4.0517985 -9.21275082 -0.81288978 0 0 Z " fill="#162335" transform="translate(130,99)"/>
<path d="M0 0 C3.16634636 -0.11760715 6.33212074 -0.18771024 9.5 -0.25 C10.386875 -0.28351563 11.27375 -0.31703125 12.1875 -0.3515625 C19.89232871 -0.4648688 24.99256113 1.39355298 30.8125 6.4375 C35.77473645 12.25040556 37.35118655 17.10635052 37.203125 24.6328125 C36.68448631 30.67694795 34.74889897 34.6550102 30.3125 38.8125 C21.20751948 45.98512854 12.11127117 45.63843768 1 45 C0 44 0 44 -0.0625 40.4375 C-0.041875 39.303125 -0.02125 38.16875 0 37 C1.22976562 36.96261719 2.45953125 36.92523438 3.7265625 36.88671875 C5.35940401 36.82102972 6.99221518 36.75458341 8.625 36.6875 C9.43324219 36.66494141 10.24148437 36.64238281 11.07421875 36.61914062 C16.12626359 36.39323618 19.52846733 35.56597182 24 33 C24.66 33 25.32 33 26 33 C27.92869599 29.01402828 28.39557376 25.33946151 28.75390625 20.98828125 C29 19 29 19 30 17 C31.54076187 18.54076187 31.24356699 19.9844485 31.3125 22.125 C31.23918102 27.24918186 30.06199074 29.89048611 27 34 C22.76843788 37.28161961 19.35663332 39.1380198 13.98828125 39.09765625 C12.85229492 39.09282227 12.85229492 39.09282227 11.69335938 39.08789062 C10.51483398 39.07532227 10.51483398 39.07532227 9.3125 39.0625 C8.51521484 39.05798828 7.71792969 39.05347656 6.89648438 39.04882812 C4.93095743 39.0370585 2.96546915 39.01912348 1 39 C1 40.32 1 41.64 1 43 C15.46894214 42.55893151 15.46894214 42.55893151 28.8125 37.375 C32.78919802 33.05744215 34.72551911 28.23505867 35.4375 22.4375 C34.52931048 15.30172522 32.58309784 10.87587186 27.01171875 6.2265625 C21.50519566 2.86918726 15.88954503 2.6147912 9.625 2.375 C8.79355469 2.33632812 7.96210937 2.29765625 7.10546875 2.2578125 C5.07064844 2.16425754 3.03535584 2.08107287 1 2 C1 3.32 1 4.64 1 6 C6.94 6 12.88 6 19 6 C19 6.66 19 7.32 19 8 C12.73 8 6.46 8 0 8 C0 5.36 0 2.72 0 0 Z " fill="#000101" transform="translate(60,99)"/>
<path d="M0 0 C1 1 1 1 1.0625 4.5625 C1.041875 5.696875 1.02125 6.83125 1 8 C-0.08667969 8.25523438 -0.08667969 8.25523438 -1.1953125 8.515625 C-10.53121913 10.66847723 -10.53121913 10.66847723 -17.32524109 17.02206421 C-20.87697752 23.64195337 -21.73638094 29.02594912 -21.70703125 36.4765625 C-21.72215256 37.52782318 -21.73727386 38.57908386 -21.75285339 39.66220093 C-21.79546005 42.98335678 -21.80454253 46.30359901 -21.8125 49.625 C-21.83566521 51.89195092 -21.86103472 54.15888044 -21.88867188 56.42578125 C-21.95125678 61.95052976 -21.98640517 67.47492515 -22 73 C-24.31 73 -26.62 73 -29 73 C-29.10199025 66.06246597 -29.17171192 59.12512755 -29.21972656 52.18701172 C-29.23975732 49.83016739 -29.26698992 47.47337222 -29.30175781 45.11669922 C-29.35065172 41.71569638 -29.37305502 38.3153545 -29.390625 34.9140625 C-29.41127014 33.87198639 -29.43191528 32.82991028 -29.45318604 31.7562561 C-29.45564847 23.60353179 -27.57752777 17.20041562 -23.3125 10.25 C-16.94212623 4.0517985 -9.21275082 -0.81288978 0 0 Z M-21.05078125 10.80859375 C-25.90153766 16.26204935 -28.13345492 22.42240948 -28.11352539 29.67675781 C-28.11344986 30.59741028 -28.11337433 31.51806274 -28.11329651 32.46661377 C-28.10813522 33.45216248 -28.10297394 34.43771118 -28.09765625 35.453125 C-28.0962413 36.46848328 -28.09482635 37.48384155 -28.09336853 38.52996826 C-28.08777516 41.77000892 -28.07522385 45.00998025 -28.0625 48.25 C-28.05748414 50.44791567 -28.05292139 52.64583242 -28.04882812 54.84375 C-28.0378079 60.22919029 -28.02107633 65.61459019 -28 71 C-26.35 71 -24.7 71 -23 71 C-22.99786247 70.1500798 -22.99786247 70.1500798 -22.99568176 69.2829895 C-22.97587739 63.34442763 -22.92137613 57.40687885 -22.84741211 51.46875 C-22.82432508 49.25756112 -22.80985839 47.04626371 -22.80444336 44.83496094 C-22.79508587 41.64189754 -22.7539456 38.45051925 -22.70703125 35.2578125 C-22.71293022 33.79313034 -22.71293022 33.79313034 -22.71894836 32.29885864 C-22.55154749 24.2861884 -20.27588387 17.66128198 -14.875 11.625 C-10.47711444 9.1392386 -5.78775847 7.5763548 -1 6 C-1 4.68 -1 3.36 -1 2 C-9.37221036 2 -15.02842968 5.10154854 -21.05078125 10.80859375 Z " fill="#010001" transform="translate(130,99)"/>
<path d="M0 0 C2.31 0 4.62 0 7 0 C7 8.58 7 17.16 7 26 C5.02 26 3.04 26 1 26 C0 25 0 25 -0.11352539 22.59155273 C-0.10828857 21.54942627 -0.10305176 20.5072998 -0.09765625 19.43359375 C-0.09443359 18.30888672 -0.09121094 17.18417969 -0.08789062 16.02539062 C-0.07951172 14.84138672 -0.07113281 13.65738281 -0.0625 12.4375 C-0.05798828 11.24962891 -0.05347656 10.06175781 -0.04882812 8.83789062 C-0.03699675 5.89187774 -0.02051287 2.94596319 0 0 Z " fill="#00050E" transform="translate(60,146)"/>
<path d="M0 0 C1.32 0 2.64 0 4 0 C4 7.26 4 14.52 4 22 C2.68 22 1.36 22 0 22 C0 14.74 0 7.48 0 0 Z " fill="#162336" transform="translate(62,148)"/>
<path d="M0 0 C1.67542976 0.28604898 3.34385343 0.61781233 5 1 C5 3.31 5 5.62 5 8 C0.71 8.99 -3.58 9.98 -8 11 C-3.73173127 6.73173127 -2.68504055 6.43731081 3 6 C3 4.68 3 3.36 3 2 C1.68 1.67 0.36 1.34 -1 1 C-0.67 0.67 -0.34 0.34 0 0 Z " fill="#050608" transform="translate(126,99)"/>
<path d="M0 0 C0.33 0 0.66 0 1 0 C1.33 6.93 1.66 13.86 2 21 C3.65 21 5.3 21 7 21 C7 21.99 7 22.98 7 24 C5.00045254 24.04254356 2.99958364 24.04080783 1 24 C0 23 0 23 -0.11352539 20.77514648 C-0.10828857 19.81680908 -0.10305176 18.85847168 -0.09765625 17.87109375 C-0.09443359 16.83662109 -0.09121094 15.80214844 -0.08789062 14.73632812 C-0.07951172 13.64771484 -0.07113281 12.55910156 -0.0625 11.4375 C-0.05798828 10.34501953 -0.05347656 9.25253906 -0.04882812 8.12695312 C-0.03699826 5.41791505 -0.02051543 2.70898401 0 0 Z " fill="#000000" transform="translate(60,148)"/>
<path d="M0 0 C3.7952131 1.49097658 5.61042731 3.75700849 8 7 C5 7 5 7 2.3125 4.625 C0 2 0 2 0 0 Z " fill="#000105" transform="translate(82,107)"/>
</svg>
